<svg width="411" height="580" viewBox="0 0 411 580" fill="none" xmlns="http://www.w3.org/2000/svg">
<g filter="url(#filter0_d)">
<path fill-rule="evenodd" clip-rule="evenodd" d="M515.084 328.2C556.114 401.012 427.107 518.546 380.992 588.918C336.104 657.419 440.832 651.69 367.618 689.063C314.375 716.242 279.924 777.975 220.437 783.523C159.933 789.167 110.171 744.684 55.8401 718.144C-8.62138 686.654 -100.585 680.667 -126.365 614.111C-152.105 547.659 -76.5845 484.858 -61.5931 414.967C-44.8097 336.721 -95.8236 234.027 -33.8116 182.62C27.775 131.566 120.27 189.02 199.63 198.416C263.454 205.973 324.834 208.867 384.562 232.157C460.019 261.58 475.551 258.046 515.084 328.2Z" fill="white"/>
</g>
<defs>
<filter id="filter0_d" x="-273" y="0" width="906.364" height="881.688" filterUnits="userSpaceOnUse" color-interpolation-filters="sRGB">
<feFlood flood-opacity="0" result="BackgroundImageFix"/>
<feColorMatrix in="SourceAlpha" type="matrix" values="0 0 0 0 0 0 0 0 0 0 0 0 0 0 0 0 0 0 127 0"/>
<feOffset dx="-6" dy="-7"/>
<feGaussianBlur stdDeviation="5"/>
<feColorMatrix type="matrix" values="0 0 0 0 0.2625 0 0 0 0 0.250469 0 0 0 0 0.250469 0 0 0 0.8 0"/>
<feBlend mode="normal" in2="BackgroundImageFix" result="effect1_dropShadow"/>
<feBlend mode="normal" in="SourceGraphic" in2="effect1_dropShadow" result="shape"/>
</filter>
</defs>
</svg>
